X Lossless Decoder version 20110417 (131.0)

XLD extraction logfile from 2011-04-30 14:50:09 +0900

Emiri Miyamoto X solita / Tokyo et Paris

Used drive : MATSHITA DVD-R   UJ-868 (revision KB19)

Ripper mode             : CDParanoia III 10.2
Disable audio cache     : OK for the drive with a cache less than 2750KiB
Make use of C2 pointers : NO
Read offset correction  : 102
Max retry count         : 100
Gap status              : Analyzed, Appended

TOC of the extracted CD
     Track |   Start  |  Length  | Start sector | End sector 
    ---------------------------------------------------------
        1  | 00:00:00 | 04:25:18 |         0    |    19892   
        2  | 04:25:18 | 03:32:21 |     19893    |    35813   
        3  | 07:57:39 | 04:22:47 |     35814    |    55510   

AccurateRip Summary
    Track 01 : OK (confidence 1)
    Track 02 : OK (confidence 1)
    Track 03 : OK (confidence 1)
        ->All tracks accurately ripped.

All Tracks
    Filename : /Users/m4c/Public/flac/Tokyo et Paris.flac
    CRC32 hash             : 30916A35
    CRC32 hash (skip zero) : ECCDF2E3
    Statistics
        Read error                           : 0
        Skipped (treated as error)           : 0
        Edge jitter error (maybe fixed)      : 0
        Atom jitter error (maybe fixed)      : 0
        Drift error (maybe fixed)            : 0
        Dropped bytes error (maybe fixed)    : 0
        Duplicated bytes error (maybe fixed) : 0

Track 01
    Pre-gap length : 00:02:00

    CRC32 hash             : 5874530B
    CRC32 hash (skip zero) : 34766412
    AccurateRip signature  : C5F0CFA1
        ->Accurately ripped! (confidence 1)
    Statistics
        Read error                           : 0
        Skipped (treated as error)           : 0
        Edge jitter error (maybe fixed)      : 0
        Atom jitter error (maybe fixed)      : 0
        Drift error (maybe fixed)            : 0
        Dropped bytes error (maybe fixed)    : 0
        Duplicated bytes error (maybe fixed) : 0

Track 02
    Pre-gap length : 00:02:45

    CRC32 hash             : 52BE4518
    CRC32 hash (skip zero) : D4F95418
    AccurateRip signature  : AE272D49
        ->Accurately ripped! (confidence 1)
    Statistics
        Read error                           : 0
        Skipped (treated as error)           : 0
        Edge jitter error (maybe fixed)      : 0
        Atom jitter error (maybe fixed)      : 0
        Drift error (maybe fixed)            : 0
        Dropped bytes error (maybe fixed)    : 0
        Duplicated bytes error (maybe fixed) : 0

Track 03
    Pre-gap length : 00:03:45

    CRC32 hash             : ADB457F5
    CRC32 hash (skip zero) : A206481F
    AccurateRip signature  : B3DF5262
        ->Accurately ripped! (confidence 1)
    Statistics
        Read error                           : 0
        Skipped (treated as error)           : 0
        Edge jitter error (maybe fixed)      : 0
        Atom jitter error (maybe fixed)      : 0
        Drift error (maybe fixed)            : 0
        Dropped bytes error (maybe fixed)    : 0
        Duplicated bytes error (maybe fixed) : 0

No errors occurred

End of status report
